<svg xmlns="http://www.w3.org/2000/svg" version="1.1" xmlns:xlink="http://www.w3.org/1999/xlink" xmlns:svgjs="http://svgjs.com/svgjs" width="600" height="314" preserveAspectRatio="none" viewBox="0 0 600 314"><g mask="url(&quot;#SvgjsMask1926&quot;)" fill="none"><rect width="600" height="314" x="0" y="0" fill="url(#SvgjsLinearGradient1927)"></rect><path d="M152 312L-35 125" stroke-width="8" stroke="url(#SvgjsLinearGradient1928)" stroke-linecap="round" class="BottomRight"></path><path d="M199 136L390 327" stroke-width="10" stroke="url(#SvgjsLinearGradient1929)" stroke-linecap="round" class="TopLeft"></path><path d="M147 142L-75 -80" stroke-width="8" stroke="url(#SvgjsLinearGradient1929)" stroke-linecap="round" class="TopLeft"></path><path d="M408 245L260 97" stroke-width="8" stroke="url(#SvgjsLinearGradient1928)" stroke-linecap="round" class="BottomRight"></path><path d="M309 0L160 -149" stroke-width="8" stroke="url(#SvgjsLinearGradient1928)" stroke-linecap="round" class="BottomRight"></path><path d="M325 139L181 -5" stroke-width="8" stroke="url(#SvgjsLinearGradient1929)" stroke-linecap="round" class="TopLeft"></path><path d="M276 172L85 -19" stroke-width="8" stroke="url(#SvgjsLinearGradient1928)" stroke-linecap="round" class="BottomRight"></path><path d="M79 150L217 288" stroke-width="8" stroke="url(#SvgjsLinearGradient1928)" stroke-linecap="round" class="BottomRight"></path><path d="M369 116L490 237" stroke-width="8" stroke="url(#SvgjsLinearGradient1929)" stroke-linecap="round" class="TopLeft"></path><path d="M482 224L696 438" stroke-width="8" stroke="url(#SvgjsLinearGradient1929)" stroke-linecap="round" class="TopLeft"></path><path d="M569 285L649 365" stroke-width="8" stroke="url(#SvgjsLinearGradient1929)" stroke-linecap="round" class="TopLeft"></path><path d="M267 205L394 332" stroke-width="8" stroke="url(#SvgjsLinearGradient1929)" stroke-linecap="round" class="TopLeft"></path><path d="M37 249L-187 25" stroke-width="8" stroke="url(#SvgjsLinearGradient1929)" stroke-linecap="round" class="TopLeft"></path><path d="M442 84L526 168" stroke-width="6" stroke="url(#SvgjsLinearGradient1929)" stroke-linecap="round" class="TopLeft"></path><path d="M421 266L228 73" stroke-width="10" stroke="url(#SvgjsLinearGradient1929)" stroke-linecap="round" class="TopLeft"></path><path d="M424 310L294 180" stroke-width="8" stroke="url(#SvgjsLinearGradient1928)" stroke-linecap="round" class="BottomRight"></path><path d="M286 99L392 205" stroke-width="10" stroke="url(#SvgjsLinearGradient1929)" stroke-linecap="round" class="TopLeft"></path></g><defs><mask id="SvgjsMask1926"><rect width="600" height="314" fill="#ffffff"></rect></mask><linearGradient x1="88.08%" y1="-22.77%" x2="11.92%" y2="122.77%" gradientUnits="userSpaceOnUse" id="SvgjsLinearGradient1927"><stop stop-color="#0e2a47" offset="0"></stop><stop stop-color="rgba(103, 14, 72, 1)" offset="1"></stop></linearGradient><linearGradient x1="0%" y1="0%" x2="100%" y2="100%" id="SvgjsLinearGradient1928"><stop stop-color="rgba(208, 208, 12, 0)" offset="0"></stop><stop stop-color="rgba(208, 208, 12, 1)" offset="1"></stop></linearGradient><linearGradient x1="100%" y1="100%" x2="0%" y2="0%" id="SvgjsLinearGradient1929"><stop stop-color="rgba(208, 208, 12, 0)" offset="0"></stop><stop stop-color="rgba(208, 208, 12, 1)" offset="1"></stop></linearGradient></defs></svg>